<?xml version="1.0" encoding="utf-8"?>
<!-- Generator: Adobe Illustrator 26.0.1, SVG Export Plug-In . SVG Version: 6.00 Build 0)  -->
<svg version="1.1" id="Layer_1" xmlns="http://www.w3.org/2000/svg" xmlns:xlink="http://www.w3.org/1999/xlink" x="0px" y="0px"
	 viewBox="0 0 810 1100" style="enable-background:new 0 0 810 1100;" xml:space="preserve">
<style type="text/css">
	.st0{fill-rule:evenodd;clip-rule:evenodd;}
	.st1{fill-rule:evenodd;clip-rule:evenodd;fill:#1F1A17;}
</style>
<g>
	<path class="st0" d="M186.15,237.66l-0.03,44.16l6.39-1.78l1.26-8.96l-3.76-0.41c0.96-3.44-1.82-1.21,4.48-2.72
		c6.46-1.55,0.41-0.22,6.14-3.65l0.09-0.62l1.32-1c-0.03-8.35-0.09-16.7-0.09-25.04L186.15,237.66L186.15,237.66z M392.71,120.03
		h0.35c0.04-0.1,0.08-0.21,0.14-0.32c0.3-0.58,0.52-0.96,0.69-1.46c-0.46-0.19-0.77-0.51-0.77-0.87c0-0.44,0.45-0.82,1.09-0.97
		c-0.15-0.15-0.24-0.36-0.24-0.59c0-0.46,0.38-0.84,0.84-0.84c0.46,0,0.84,0.38,0.84,0.84c0,0.23-0.09,0.44-0.24,0.59
		c0.64,0.15,1.09,0.53,1.09,0.97c0,0.37-0.31,0.69-0.77,0.87c0.17,0.5,0.39,0.88,0.69,1.46c0.05,0.11,0.1,0.21,0.14,0.32h1.86
		l0.06-0.25c0.26-1.17,0.77-1.65,1.2-1.84h0l0.01,0c0.05-0.02,0.1-0.05,0.16-0.07l0.03-0.01c-0.34-0.26-0.56-0.66-0.56-1.12v-0.01
		c0-0.32,0.11-0.61,0.29-0.85c-0.37-0.1-0.64-0.44-0.64-0.85l0,0c0-0.48,0.4-0.88,0.88-0.88h2.38l0.26-11.16h-0.62
		c-0.72,0-1.31-0.59-1.31-1.31v0c0-0.3,0.1-0.57,0.27-0.79c-0.34-0.1-0.6-0.41-0.6-0.79l0,0c0-0.45,0.37-0.82,0.82-0.82h1.53
		l0.26-11.15h-0.42c-0.67,0-1.22-0.55-1.22-1.22v0c0-0.28,0.09-0.53,0.25-0.74c-0.32-0.09-0.56-0.39-0.56-0.73l0,0
		c0-0.42,0.34-0.76,0.76-0.76h1.27l0.26-11.16l-0.09,0h-0.1c-0.63,0-1.14-0.51-1.14-1.14v0c0-0.26,0.09-0.5,0.24-0.69
		c-0.3-0.08-0.52-0.36-0.52-0.69l0,0c0-0.39,0.32-0.72,0.72-0.72h0.96h0.02l0.26-11.16h-0.02h-0.32c-0.51,0-0.93-0.42-0.93-0.93v0
		c0-0.21,0.07-0.41,0.19-0.56c-0.25-0.07-0.42-0.29-0.42-0.56l0,0c0-0.32,0.26-0.58,0.58-0.58h0.98l0.26-11.16h-0.02h-0.18
		c-0.42,0-0.76-0.34-0.76-0.76v0c0-0.17,0.06-0.33,0.16-0.46c-0.2-0.06-0.35-0.24-0.35-0.46l0,0c0-0.26,0.21-0.48,0.48-0.48h0.73
		l0.27-11.22l-0.22,0.07c0,0-0.05,0-0.11-0.01h-0.02c-0.03,0-0.03,0-0.01-0.01c-0.03-0.01-0.07-0.02-0.09-0.04
		c-0.07-0.06-0.16-0.19-0.26-0.3c-0.18-0.12-0.33-0.26-0.33-0.41v0c0-0.17,0.06-0.33,0.16-0.46c-0.2-0.06-0.35-0.24-0.35-0.46l0,0
		c0-0.26,0.21-0.48,0.48-0.48h0.5c0.11,0,0.21,0.04,0.29,0.1l0.22-9.3c-0.68-0.32-1.15-1.02-1.15-1.82c0-1.11,0.9-2.01,2.01-2.01
		l0.01,0h0.01h0.01l0.01,0c1.11,0,2.01,0.9,2.01,2.01c0,0.8-0.47,1.5-1.15,1.82l0.22,9.3c0.08-0.06,0.18-0.1,0.29-0.1h0.5
		c0.26,0,0.48,0.21,0.48,0.48l0,0c0,0.22-0.15,0.4-0.35,0.46c0.1,0.13,0.16,0.29,0.16,0.46v0c0,0.15-0.15,0.29-0.33,0.41
		c-0.1,0.11-0.19,0.25-0.26,0.3c-0.03,0.02-0.06,0.04-0.09,0.04c0.02,0,0.02,0.01-0.01,0.01h-0.02c-0.06,0.01-0.11,0.01-0.11,0.01
		l-0.22-0.07l0.27,11.22h0.73c0.26,0,0.48,0.21,0.48,0.48l0,0c0,0.22-0.15,0.4-0.35,0.46c0.1,0.13,0.16,0.29,0.16,0.46v0
		c0,0.42-0.34,0.76-0.76,0.76h-0.18h-0.02l0.26,11.16H408c0.32,0,0.58,0.26,0.58,0.58l0,0c0,0.26-0.18,0.49-0.42,0.56
		c0.12,0.16,0.19,0.35,0.19,0.56v0c0,0.51-0.42,0.93-0.93,0.93h-0.32h-0.02l0.26,11.16h0.02h0.96c0.39,0,0.72,0.32,0.72,0.72l0,0
		c0,0.33-0.22,0.6-0.52,0.69c0.15,0.19,0.24,0.43,0.24,0.69v0c0,0.63-0.52,1.14-1.14,1.14h-0.1l-0.09,0l0.26,11.16h1.27
		c0.42,0,0.76,0.34,0.76,0.76l0,0c0,0.35-0.23,0.64-0.56,0.73c0.16,0.21,0.25,0.46,0.25,0.74v0c0,0.67-0.55,1.22-1.22,1.22h-0.42
		l0.26,11.15h1.53c0.45,0,0.82,0.37,0.82,0.82l0,0c0,0.37-0.25,0.69-0.6,0.79c0.17,0.22,0.27,0.5,0.27,0.79v0
		c0,0.72-0.59,1.31-1.31,1.31h-0.62l0.26,11.16h2.38c0.48,0,0.88,0.39,0.88,0.88l0,0c0,0.4-0.27,0.74-0.64,0.85
		c0.18,0.24,0.29,0.53,0.29,0.85v0.01c0,0.45-0.22,0.86-0.56,1.12l0.03,0.01c0.05,0.02,0.11,0.04,0.16,0.07l0.01,0h0
		c0.43,0.19,0.94,0.67,1.2,1.84l0.06,0.25h1.88c0.04-0.1,0.08-0.21,0.14-0.32c0.3-0.58,0.52-0.96,0.69-1.46
		c-0.46-0.19-0.77-0.51-0.77-0.87c0-0.44,0.45-0.82,1.09-0.97c-0.15-0.15-0.24-0.36-0.24-0.59c0-0.46,0.38-0.84,0.84-0.84
		c0.46,0,0.84,0.38,0.84,0.84c0,0.23-0.09,0.44-0.24,0.59c0.64,0.15,1.09,0.53,1.09,0.97c0,0.37-0.31,0.69-0.77,0.87
		c0.17,0.5,0.39,0.88,0.69,1.46c0.05,0.11,0.1,0.21,0.14,0.32h0.27v0.41h0.41v0.02h0.01v1.24l2.12,0.93l-1.85,2.27l5.01,3.77v-1.28
		h0.57c0.04-0.23,0.12-0.49,0.25-0.75c0.3-0.58,0.51-0.96,0.69-1.46c-0.46-0.19-0.77-0.51-0.77-0.87c0-0.44,0.45-0.82,1.09-0.97
		c-0.15-0.15-0.24-0.36-0.24-0.59c0-0.46,0.38-0.84,0.84-0.84c0.46,0,0.84,0.38,0.84,0.84c0,0.23-0.09,0.44-0.24,0.59
		c0.64,0.15,1.09,0.53,1.09,0.97c0,0.37-0.31,0.69-0.77,0.87c0.17,0.5,0.39,0.88,0.69,1.46c0.13,0.26,0.21,0.52,0.25,0.75h0.57v2.11
		h-0.02l1.11,1.94v1.47l-1.81,0.23v5.28l0.72,0.38l1.13,0.57v1.05c-1.13,0.11-1.82,0.46-1.85,1.16V151l0.67-0.17l2.39,4.53
		l-0.54,0.12c0.17,0.67,0.09,1.52-0.47,2.6c-0.28,0.54-0.29,0.61-0.31,0.6c-0.15,0.25-0.5,0.43-0.85,0.57v1.58
		c0.07,0.07,0.24-0.14,0.68,0.48c0.07,0.09,0.13,0.19,0.18,0.28v3.12l4.91-3.7v-1.87h0.52c0.04-0.21,0.11-0.44,0.23-0.68
		c0.27-0.52,0.46-0.86,0.62-1.31c-0.42-0.17-0.69-0.46-0.69-0.79c0-0.4,0.41-0.74,0.98-0.88c-0.14-0.14-0.22-0.32-0.22-0.53
		c0-0.42,0.34-0.76,0.76-0.76c0.42,0,0.76,0.34,0.76,0.76c0,0.21-0.08,0.4-0.22,0.53c0.57,0.13,0.98,0.48,0.98,0.88
		c0,0.33-0.28,0.62-0.69,0.79c0.16,0.45,0.35,0.79,0.62,1.31c0.12,0.23,0.19,0.47,0.22,0.68h0.52v1.81h0l6.6,4.25
		c0,0,0.84,0.67-0.25,1.68l-0.01,0.01c0.34,0.29,0.63,0.59,0.59,0.75c-0.07,0.3-1.3,1.37-1.8,1.8v0.03h-0.09v5.62h0.08v0.17
		c1.75,1.07,3.61,2.33,5.2,3.72v27.5h0.82v20.9h2.45l0.01-0.01c-0.12-0.32-0.28-1.03,0.42-1.5c0.02-0.36,0.19-1.77,1.51-2.4
		c-0.2-0.28-0.32-0.62-0.32-0.99c0-0.95,0.77-1.72,1.72-1.72c0.95,0,1.72,0.77,1.72,1.72c0,0.36-0.11,0.69-0.3,0.97
		c1.07,0.57,1.09,1.84,1.07,2.14c0.55,0.25,0.95,0.73,0.55,1.48l-0.02,0.03c0.81,0.4,1.24,0.9,1.22,1.3
		c-0.04,0.67-0.37,1.35-1.03,1.82v2.21c3.02,0.67,4.1,2.28,4.37,3.05c0.26,0.74,0.08,2.03-0.29,2.7c0.55,0.69,0.35,0.05,0.67,1.15
		c1.06,0.98,1.43,2.14,1.25,3.05l-0.02,0.08c0.21-0.05,0.43-0.08,0.66-0.08c0.23,0,0.46,0.03,0.67,0.08h1.59v5.04h-0.47v2.8
		c0,0-1.28,2.84-1.99,5.4c1.97,2.49,5.47,4.31,5.47,4.31v3.36h-1.4c-0.04,0.59,0.13,1.3,0.86,2.31c0.66,0.9,1.03,1.47,1.84,1.75
		v8.69h3.4c-0.1-0.3-0.15-0.61-0.15-0.92c0-2,2.03-3.73,4.97-4.53v-2.49c-0.59-0.44-1.44-1.24-1.15-2.1
		c0.15-0.46,0.44-0.91,0.88-1.29c-0.14-0.36-0.32-1.15,0.47-1.68c0.03-0.4,0.22-1.97,1.69-2.68c-0.22-0.31-0.35-0.7-0.35-1.11
		c0-1.06,0.86-1.92,1.92-1.92c1.06,0,1.92,0.86,1.92,1.92c0,0.4-0.12,0.77-0.33,1.08c1.2,0.64,1.22,2.06,1.2,2.4
		c0.62,0.28,1.06,0.81,0.62,1.66l-0.02,0.04c0.9,0.45,1.39,1.01,1.37,1.45c-0.04,0.75-0.42,1.51-1.15,2.03v2.47
		c3.38,0.74,4.59,2.55,4.89,3.41c0.03,0.07,0.05,0.15,0.07,0.24c0.14,0.36,0.22,0.73,0.22,1.12c0,0.79-0.31,1.53-0.87,2.19
		c1.95,1.21,2.65,2.89,2.42,4.16h1.54v4.62h-0.1l0.06,0.04c-1.94,1.25-1.08,2.73-2.23,4.35c0.18,0.03,0.36,0.07,0.53,0.14h1.71v4.78
		h-1.36c1.33,1.06,2.18,2.69,2.18,4.52c0,1.84-0.87,3.48-2.21,4.54c0.84,0.77,1.25,0.87,1.4,1.4h0.56v3.48l0.06,0.04
		c0.29,0.79,1.62,1.53,3.71,2.16l0.13,0.07l-0.01,0l0.02,0.01l-0.01,2.87h-0.15c-0.22,0.18-0.59,0.04-1.04,0.95
		c-0.62,2.35,0.41,4.16-0.26,7.12c0,8.98,0,18,0,27.14l0.09,0h0.23v1.76h-0.15l0,0.01c0.68,0.62,0.69,1.58,0.68,1.83
		c0.54,0.24,0.93,0.71,0.54,1.45l-0.02,0.03c0.79,0.39,1.22,0.89,1.19,1.27c-0.04,0.66-0.36,1.32-1.01,1.78v0.36
		c0.24,0.43,0.53,1.07,0.72,1.99c2.18,0.66,3.13,1.84,3.47,2.58h0.44v3.97h0c1.05,0.96,1.43,2.1,1.25,3h2.76c0,2.01,0,4.03,0,6.04h0
		v0.26h-1.57l0.15,0.32c0.53,1.12,0.86,1.91,0.82,3.28c-0.05,2.02-0.57,3.17-1.53,4.68l-0.68,0.74h1.17v3.44h-0.01v0.22h-0.37v0.01
		l0.53,0.36l0,0.01c0.94,0.64,1.56,1.73,1.56,2.96l-0.01,2.31c0.07,0.93-0.22,1.83-0.79,2.53v1.05h1.3v6.13h2.1
		c0,2.46,0,4.92,0,7.39h-0.78c-0.04,0.05-0.09,0.11-0.13,0.15v15.98l0.15,1.01l0.02,0.34l0.01,0.05c0.02,0.32,0.04,0.55,0.01,0.84
		h1.9v6.55h3.52v13.34l2.56,0v-0.97l12.61-1.91v-4.15l-0.01,0c0,0,0.01-0.01,0.01-0.02v-0.02l0.02,0c0.24-0.36,1.92-2.59,6.95-4.02
		c8.57-2.91,21.58,0.17,29.49,0.85l6.88-91.65l15.83-3.41l0.16-3.62l-2.12-1.96l0.03-0.62v-2.49h2.15l-0.31-1.88l0.85-1.89
		c0.06-0.24,0.24-0.69,0.3-0.98l0.12-0.6v-5.13h5.04v5.36l0.17,1.19h1.72v-0.09h-0.04v-2.94h3.14c-0.88-4.75-1.19-6.12-1.3-11.74
		c-0.14-7.08,0.76-5.37,1.88-12.29c-2.75-1.25-1.73-0.8-1.94-5.65l-0.05-0.01l2.71-3.59c-0.11-19.63-1.72-14.92-0.52-21.95
		c1.51-8.83-0.25-6.91,0.08-13.13c0.19-23.39,2.86-40.4,3.35-64.35c0.08-4.12,0.14-5.81,0.45-6.71v-2.1h1.68V302h0.96v26.6h5.5
		c0-0.54,0-1.08,0-1.62h2.85v1.62h4.99c-0.01-0.02-0.01-0.04-0.01-0.05l0.01-0.18v-2.69h2.83v4.19h1.32v-0.87l-0.01-0.11
		c0-0.6,0.49-1.09,1.09-1.09c0.1,0,0.2,0.01,0.29,0.04l0.01-0.01c3.75,0.84,2.42,0.32,4.38,3.39l1.96,0.39v-9.79l2.18-6.26
		c0.33-4.73-2.69-4.47-2-8.95c0.21-1.37,0.99-3.82,2.86-3.63v-6.14h-1.87v-2.35h-0.84v-27.86h2.01v-23h2.49
		c0.22-0.53,0.47-1.03,0.74-1.48l0.89-31.88v-11.9l0.56-2.61c0.13-1.27,0.28-2.65,0.45-4.1v-24.34h1.85v0.34v6.11v0.03
		c0,0.33,0,0.67,0,1.01v0.03v18.23c0.11,0.98,0.2,1.98,0.29,3l0.55,2.97v6.99c0.18,6.02,0.14,12.44,0,19.01v67.7l0.13,0.09h1.37
		v1.39l0.04,0.05l-0.04,0.06v34.98c0.22,1.61,0.5,2.28,0.9,2.72l-0.55,3.13l1.36,0.94c6.8,6.04-3.91,3.52,10.39,7.07
		c7.75,1.92,5.52,1.93,6.73,3.25c4.44,0.15,3.88,0.88,4.48,1.31c3.7,83.24,7.88,166.49,12.59,249.68l1.65,2.35
		c2.43,6.01,3.75,5.78,4.45,8.55l0.07,6.56v20.86h0.23v0.75h0.25l1.24-2.31c0-3.51,0-7.03,0-10.52h4.41v0.26l0,0v9.87l1.86,2.69h3.8
		v0.1h0.01c0,23.84,0,47.69,0,71.53h4.76l0.11,4.76h41.35v28.63l27.04,9.54l3.78,75.05h28.46v19.09c-298.78,0-529.69,0-800,0V826.1
		h31.94l7.79-84.99l14.31-13.52l3.18-27.83l15.11-27.89l5.26-9.44l11.68-0.6l1.3-1.22l15.03-13.15l0.13-0.2l0,0.08l5.78-5.05
		l5.75-7.35l30.45,6.53l1.21-201.81l17.97-4.26l0.24-149.78l10.67-2.96v-61.03h1.77v-22.2h1.26v22.2v3.53l0.05,10.17l17.74-0.08
		c-0.14-10.67,0.34-33.47,0.82-57.81V93.4h1.98v9.45l0.01,0.44l0.14,31.89c0,1.48,0.06,2.71,0.16,3.76l1.9,6.17v1.84v2.53v107.38
		c-0.44,0.17-0.74,0.28-0.95,0.37v3.83h0.12c0.39,0,0.78,0,1.16,0h18.47v-19.58c-0.14-1.47-0.33-2.45-0.54-3.21h-1.47v-6.88h0.09
		c0.19-0.49,0.77-0.1,1.38-2.02v-42.53h2.64v40.38h5.12v-48.45c-0.3,0.16-0.64,0.25-1.01,0.25c-0.11,0-0.23-0.01-0.34-0.03v0.21
		c-0.67-0.14-1.23-0.6-1.53-1.24c-0.2-0.33-0.32-0.72-0.32-1.14c0-1.04,0.73-1.91,1.7-2.13c0.05-0.01,0.1-0.03,0.15-0.04v0.01
		c0.11-0.02,0.22-0.03,0.34-0.03c0.36,0,0.71,0.09,1.01,0.25v-78.3h4.7v130.25h0.48l-0.01,0.33h9.86V190.6h2.52v84.9
		c1.17,0.21,2.61,0.44,4.39,0.69l13.35,1c0,26.59-0.46,138.48-0.46,156.77l25.5,2.42h2.39v-6.55h2.18
		c-0.03-0.28-0.01-0.52,0.01-0.84l0.01-0.05l0.02-0.34l0.15-1.01v-15.98c-0.05-0.05-0.09-0.1-0.13-0.15h-0.78c0-2.46,0-4.92,0-7.39
		h2.1v-6.13h1.3v-1.05c-0.56-0.7-0.86-1.6-0.79-2.53l-0.01-2.31c0-1.23,0.62-2.32,1.56-2.96l0-0.01l0.53-0.36v-0.01h-0.37v-0.22
		h-0.01v-3.44h1.17l-0.68-0.74c-0.96-1.51-1.48-2.66-1.53-4.68c-0.03-1.37,0.29-2.16,0.82-3.28l0.15-0.32h-1.58v-0.26h0
		c0-2.02,0-4.03,0-6.04h2.76c-0.17-0.9,0.2-2.05,1.26-3.01v-3.96h0.42c0.34-0.73,1.29-1.92,3.47-2.58c0.19-0.92,0.48-1.57,0.72-1.99
		v-0.36c-0.64-0.46-0.97-1.12-1.01-1.78c-0.02-0.38,0.4-0.88,1.19-1.27l-0.02-0.03c-0.38-0.74,0-1.21,0.54-1.45
		c-0.01-0.25,0-1.2,0.66-1.82v-0.02h-0.14v-1.76h0.14c0-11.29,0-22.59,0-33.88c-0.02-0.13-0.05-0.25-0.09-0.38
		c-0.45-0.92-0.82-0.78-1.04-0.95h-0.15l-0.01-2.87l0.02-0.01l-0.01,0l0.13-0.07c2.09-0.63,3.42-1.36,3.71-2.16l0.06-0.04v-3.48
		h0.56c0.15-0.53,0.55-0.64,1.39-1.39c-1.36-1.05-2.23-2.7-2.23-4.55c0-1.83,0.85-3.46,2.18-4.52h-1.37v-4.78h1.76
		c0.17-0.06,0.34-0.11,0.53-0.14c-1.15-1.62-0.29-3.1-2.23-4.35l0.06-0.04h-0.1v-4.62h1.54c-0.23-1.26,0.46-2.92,2.37-4.13
		c-0.57-0.67-0.9-1.42-0.9-2.22c0-0.56,0.16-1.1,0.45-1.6c0.43-0.92,1.71-2.48,4.79-3.16v-2.47c-0.74-0.53-1.11-1.28-1.15-2.03
		c-0.03-0.44,0.46-1,1.37-1.45l-0.02-0.04c-0.44-0.84,0-1.38,0.62-1.66c-0.02-0.34,0-1.75,1.2-2.4c-0.21-0.31-0.33-0.68-0.33-1.08
		c0-1.06,0.86-1.92,1.92-1.92c1.06,0,1.92,0.86,1.92,1.92c0,0.41-0.13,0.8-0.35,1.11c1.48,0.71,1.67,2.28,1.69,2.68
		c0.79,0.53,0.61,1.33,0.47,1.68c0.43,0.38,0.72,0.83,0.88,1.29c0.29,0.87-0.56,1.67-1.15,2.1v2.51c2.9,0.8,4.9,2.52,4.9,4.51
		c0,0.32-0.05,0.63-0.15,0.92h3.47v-8.69c0.82-0.28,1.19-0.85,1.84-1.75c0.73-1.01,0.9-1.72,0.86-2.31h-1.4v-3.36
		c0,0,3.48-1.81,5.45-4.29c-0.71-2.56-1.99-5.41-1.99-5.41v-2.8h-0.5v-5.04h1.63c0.21-0.05,0.44-0.08,0.67-0.08
		c0.23,0,0.45,0.03,0.66,0.08l-0.02-0.08c-0.18-0.91,0.19-2.07,1.25-3.05c0.31-1.1,0.11-0.46,0.67-1.15
		c-0.37-0.67-0.55-1.96-0.29-2.7c0.27-0.77,1.35-2.38,4.37-3.05v-2.21c-0.66-0.47-0.99-1.14-1.03-1.82c-0.02-0.39,0.41-0.9,1.22-1.3
		l-0.02-0.03c-0.39-0.76,0-1.23,0.55-1.48c-0.01-0.3,0-1.57,1.07-2.14c-0.19-0.27-0.3-0.61-0.3-0.97c0-0.95,0.77-1.72,1.72-1.72
		c0.95,0,1.72,0.77,1.72,1.72c0,0.37-0.12,0.71-0.32,0.99c1.32,0.63,1.49,2.04,1.51,2.4c0.7,0.48,0.54,1.19,0.42,1.5l0.01,0.01h2.34
		v-20.9h0.93v-27.5c1.59-1.38,3.45-2.65,5.2-3.72v-0.17h0.08v-5.62h-0.09v-0.03c-0.5-0.42-1.74-1.5-1.8-1.8
		c-0.04-0.16,0.25-0.46,0.59-0.75l-0.01-0.01c-1.09-1.01-0.25-1.68-0.25-1.68l6.62-4.26l0.01-0.02v-1.77h0.52
		c0.04-0.21,0.11-0.44,0.23-0.68c0.27-0.52,0.46-0.86,0.62-1.31c-0.42-0.17-0.69-0.46-0.69-0.79c0-0.4,0.41-0.74,0.98-0.88
		c-0.14-0.14-0.22-0.32-0.22-0.53c0-0.42,0.34-0.76,0.76-0.76c0.42,0,0.76,0.34,0.76,0.76c0,0.21-0.08,0.4-0.22,0.53
		c0.57,0.13,0.98,0.48,0.98,0.88c0,0.33-0.28,0.62-0.69,0.79c0.16,0.45,0.35,0.79,0.62,1.31c0.12,0.23,0.19,0.47,0.23,0.68h0.52
		v1.89l4.89,3.68v-3.12c0.05-0.09,0.12-0.19,0.18-0.28c0.45-0.62,0.62-0.41,0.68-0.48v-1.58c-0.35-0.13-0.7-0.32-0.85-0.57
		c-0.02,0.02-0.03-0.06-0.31-0.6c-0.56-1.08-0.64-1.93-0.47-2.6l-0.54-0.12l2.39-4.53l0.67,0.17v-9.42
		c-0.03-0.7-0.72-1.05-1.85-1.16v-1.05l1.13-0.57l0.72-0.38v-5.28l-1.81-0.23v-1.47l1.12-1.94v-2.11h0.57
		c0.04-0.23,0.12-0.49,0.25-0.75c0.3-0.58,0.51-0.96,0.69-1.46c-0.46-0.19-0.77-0.51-0.77-0.87c0-0.44,0.45-0.82,1.09-0.97
		c-0.15-0.15-0.24-0.36-0.24-0.59c0-0.46,0.38-0.84,0.84-0.84c0.46,0,0.84,0.38,0.84,0.84c0,0.23-0.09,0.44-0.24,0.59
		c0.64,0.15,1.09,0.53,1.09,0.97c0,0.37-0.31,0.69-0.77,0.87c0.17,0.5,0.39,0.88,0.69,1.46c0.13,0.26,0.21,0.52,0.25,0.75h0.57v1.26
		l4.98-3.75l-1.85-2.27l2.14-0.93v-1.25h0.35V120.03L392.71,120.03z M249.95,274.96c-4.28-1.1-1.42-1.83-2.74-2.96l-6.71-3.81h-0.14
		v-37.71h0.25l0-0.02h9.34V274.96L249.95,274.96z"/>
	<path d="M5.93,942.1h71.59v-12.81H23v-56.48H5.93V942.1L5.93,942.1z M103.01,914.02l15.6-28.9l16.25,28.9H103.01L103.01,914.02z
		 M70.17,942.1h16.91l8.7-15.27h45.97l8.7,15.27h19.05l-41.87-69.45h-16.25L70.17,942.1L70.17,942.1z M170.86,942.1h17.08v-31.36
		l43.67,31.36h26.76l-53.36-37.27l47.94-32.18h-24.46l-40.55,28.08v-28.08h-17.08V942.1L170.86,942.1z M256.77,942.1h75.36v-12.81
		h-58.29v-17.24h33.5v-11.99h-33.5v-15.11h57.47v-12.31h-74.54V942.1L256.77,942.1z M404.91,885.12v7.39l14.61-3.12v-1.64
		c0-6.02-1.45-10.04-4.35-12.07c-2.9-2.02-7.53-3.04-13.87-3.04h-41.21c-3.39,0-6.27,0.25-8.62,0.74c-2.35,0.49-4.24,1.34-5.66,2.55
		c-1.42,1.2-2.44,2.87-3.04,5.01c-0.6,2.13-0.9,4.84-0.9,8.13v7.72c0,3.28,0.3,5.99,0.9,8.13c0.6,2.13,1.61,3.8,3.04,5.01
		c1.42,1.2,3.31,2.05,5.66,2.55c2.35,0.49,5.23,0.74,8.62,0.74h44.99v16.09h-51.06v-8.21l-15.27,2.79v1.97c0,3.28,0.3,5.94,0.9,7.99
		c0.6,2.05,1.61,3.69,3.04,4.95c1.42,1.23,3.31,2.11,5.61,2.57c2.3,0.49,5.2,0.74,8.7,0.74h45.26c3.39,0,6.27-0.25,8.62-0.74
		c2.35-0.49,4.24-1.37,5.61-2.63c1.37-1.26,2.35-2.93,2.96-5.01c0.6-2.08,0.9-4.76,0.9-8.04v-9.52c0-3.28-0.3-5.99-0.9-8.13
		c-0.6-2.13-1.59-3.8-2.96-5.01c-1.37-1.2-3.23-2.05-5.58-2.54c-2.35-0.49-5.23-0.74-8.62-0.74h-45.15v-14.61H404.91L404.91,885.12z
		 M433.69,942.1h17.08v-29.23h52.87v29.23h16.91v-69.45h-16.91v26.43h-52.87v-26.43h-17.08V942.1L433.69,942.1z M534.05,889.07
		v36.61c0,3.28,0.3,5.99,0.9,8.13c0.6,2.13,1.59,3.8,2.96,5.01c1.37,1.2,3.2,2.05,5.5,2.54c2.3,0.49,5.2,0.74,8.7,0.74h53.69
		c3.39,0,6.24-0.25,8.54-0.74c2.3-0.49,4.16-1.34,5.58-2.54c1.42-1.2,2.43-2.87,3.04-5.01c0.6-2.13,0.9-4.84,0.9-8.13v-36.61
		c0-3.28-0.3-5.99-0.9-8.13c-0.6-2.13-1.61-3.83-3.04-5.09c-1.42-1.26-3.28-2.11-5.58-2.55c-2.3-0.44-5.15-0.66-8.54-0.66h-53.69
		c-3.39,0-6.24,0.22-8.54,0.66c-2.3,0.44-4.16,1.29-5.58,2.55c-1.42,1.26-2.44,2.96-3.04,5.09
		C534.35,883.07,534.05,885.78,534.05,889.07L534.05,889.07z M550.96,928.8v-43.35h55.99v43.35H550.96L550.96,928.8z M637.2,942.1
		h16.75v-26.27h15.93l29.06,26.27h24.3l-33-26.27h9.52c5.58,0,9.69-1.01,12.31-3.04c2.63-2.02,3.94-5.45,3.94-10.26v-16.42
		c0-4.93-1.31-8.4-3.94-10.43c-2.63-2.02-6.73-3.04-12.31-3.04H637.2V942.1L637.2,942.1z M692.54,884.63c2.52,0,4.43,0.36,5.75,1.07
		c1.31,0.71,1.97,2.22,1.97,4.52v8.04c0,2.3-0.66,3.8-1.97,4.52c-1.31,0.71-3.23,1.07-5.75,1.07h-38.58v-19.21H692.54L692.54,884.63
		z M728.04,942.1h75.36v-12.81h-58.29v-17.24h33.49v-11.99h-33.49v-15.11h57.47v-12.31h-74.54V942.1L728.04,942.1z"/>
	<path d="M57.43,1004.11c2.68,0,4.64,0.39,5.87,1.16c1.24,0.77,1.86,2.34,1.86,4.72v4.95c0,2.37-0.62,3.94-1.86,4.71
		c-1.24,0.77-3.19,1.16-5.87,1.16H21.72v-16.7H57.43L57.43,1004.11z M57.43,977.83c2.47,0,4.28,0.28,5.41,0.85
		c1.13,0.57,1.7,1.83,1.7,3.79v6.18c0,1.96-0.59,3.22-1.78,3.79c-1.18,0.57-2.96,0.85-5.33,0.85H21.72v-15.46H57.43L57.43,977.83z
		 M5.95,1032.55h54.42c13.5,0,20.25-4.28,20.25-12.83v-8.35c0-3.3-1.01-6.06-3.01-8.27c-2.01-2.22-4.87-3.63-8.58-4.25
		c3.61-0.62,6.37-1.88,8.27-3.79c1.91-1.91,2.86-4.35,2.86-7.34v-7.89c0-4.64-1.26-7.91-3.79-9.82c-2.53-1.91-6.41-2.86-11.67-2.86
		H5.95V1032.55L5.95,1032.55z M112.31,1032.55h70.96v-12.06h-54.88v-16.23h31.54v-11.29h-31.54v-14.22h54.11v-11.59h-70.19V1032.55
		L112.31,1032.55z M241.71,1032.55h10.98l37.88-65.4h-16.54l-26.13,47.46l-27.67-47.46h-18.09L241.71,1032.55L241.71,1032.55z
		 M313.59,1032.55h70.96v-12.06h-54.88v-16.23h31.54v-11.29h-31.54v-14.22h54.11v-11.59h-70.19V1032.55L313.59,1032.55z
		 M412.37,1032.55h15.77v-24.74h15l27.36,24.74h22.88l-31.07-24.74h8.97c5.26,0,9.12-0.95,11.59-2.86c2.47-1.91,3.71-5.13,3.71-9.66
		v-15.46c0-4.64-1.24-7.91-3.71-9.82c-2.47-1.91-6.34-2.86-11.59-2.86h-58.9V1032.55L412.37,1032.55z M464.47,978.44
		c2.37,0,4.17,0.33,5.41,1c1.24,0.67,1.85,2.09,1.85,4.25v7.58c0,2.16-0.62,3.58-1.85,4.25c-1.24,0.67-3.04,1-5.41,1h-36.33v-18.09
		H464.47L464.47,978.44z M538.68,1006.12l14.69-27.21l15.31,27.21H538.68L538.68,1006.12z M507.76,1032.55h15.92l8.19-14.38h43.29
		l8.19,14.38h17.93l-39.42-65.4h-15.31L507.76,1032.55L507.76,1032.55z M686.47,979.22v6.96l15.61-2.63v-1.7
		c0-5.87-1.29-9.79-3.87-11.75c-2.58-1.96-6.96-2.94-13.14-2.94h-47.31c-3.2,0-5.88,0.23-8.04,0.7c-2.16,0.46-3.92,1.26-5.26,2.4
		c-1.34,1.13-2.29,2.71-2.86,4.72c-0.57,2.01-0.85,4.56-0.85,7.65v34.48c0,3.09,0.28,5.62,0.85,7.57c0.57,1.96,1.49,3.53,2.78,4.71
		c1.29,1.19,3.01,2.01,5.18,2.47c2.16,0.46,4.9,0.69,8.19,0.69h47.31c3.2,0,5.9-0.23,8.12-0.69c2.22-0.46,3.97-1.29,5.26-2.47
		c1.29-1.19,2.22-2.76,2.78-4.71c0.57-1.96,0.85-4.48,0.85-7.57v-22.57H660.5v11.6h25.97v13.91h-49.78v-40.81H686.47L686.47,979.22z
		 M734.08,1032.55h70.96v-12.06h-54.88v-16.23h31.54v-11.29h-31.54v-14.22h54.11v-11.59h-70.19V1032.55L734.08,1032.55z"/>
	<path class="st1" d="M230.52,1056.73l-2.14,1.17c-0.34,0.17,0.13,0.02-0.29,0.11c-0.54,0.79-2.27,1.83-1.98,4.31
		c0.28,2.43,2.97,2.2,3.5,1.26c0.23-1.86-1.34-1.77-1.09-3.37c0.46-2.89,6.86-3.57,9.57-3.53c-0.23,1.07-2.14,6.1-2.75,7.87
		l-0.48,0.95c0.01,1.23-3,8.13-4.39,9.74c-1.04,1.2-2.77,2.58-4.61,0.97c-2.88-2.52-4.18-0.38-3.25,0.68
		c0.96,1.1,4.04,1.42,5.83,1.02c3.51-0.77,6.29-3.26,7.81-6.4l2.09-4.98c0.42-0.42,9.75-0.5,10-0.49c-0.39,1.72-1.34,4.07-1.94,5.79
		c-0.66,1.91-1.33,3.6-2.06,5.38c1.7-0.01,3.04-0.18,4.93-0.08c1.59,0.09,3.27,0.27,4.83,0.02c0.27-0.38,0.25-0.43,0.36-0.99
		c-2.26,0.15-3.31,0.04-5.49-0.13c0.16-2.24,3.83-12.28,4.9-14.7c1.12-2.55,2.12-4.53,3.8-6.02c1.01-0.9,2.19-1.19,3.48-0.33
		c1.65,1.1,0.92,1.17,3.33,1.2l0.48-0.7c0.45-1.74-2.94-2.24-4.36-2.24c-9.42,0.04-10.56,10.46-11.78,11.24
		c-1.42,0.42-7.97,0.41-9.87,0.39c0.18-1.25,1.26-3.76,1.72-4.95c0.72-1.85,1.88-3.83,2.1-4.41
		C237.37,1055.36,235.41,1055.51,230.52,1056.73L230.52,1056.73z"/>
	<path class="st1" d="M389.65,1074.73c-0.03-0.82,0.79-3.08,1.1-4.01c0.94-2.88,1.71-4.06,4.36-5.6c5.06-2.95,3.69-0.52,1.69,5.47
		c-0.69,2.08-1.47,4.29-2.03,6.36l3.4,0.08c0.34-1.86,2.14-7.02,2.93-8.64c1.51-3.11,6.05-5.19,6.82-4.29
		c0.48,1.03-2.64,7.88-3.09,9.53c-0.53,1.91-0.38,4.11,1.93,3.88c2.11-0.2,3.12-1.61,4.52-2.06c0.28-0.55-0.04-0.16,0.39-0.22
		c0.42-0.65,0.79-0.55,1.29-1.03c0.23-0.22,0.07-0.02,0.21-0.25c-0.32-0.35-0.34-0.34-0.63-0.56c-1.24,0.47-2.61,2.37-4.42,1.97
		c-0.57-2.15,3.67-9.22,3.77-11.85c0.15-3.73-5.59-1.04-7.64,0.33c-0.58,0.39-1.85,1.38-2.36,1.59c1.72-3.82-0.09-4.61-3.62-3.19
		c-2.99,1.2-4.46,2.8-6.11,3.69c0.21-1.19,1.17-2.96,1-4.03c-1.3-0.71-3.49,0.22-4.75,0.76c-2.02,0.86-3.2,1.97-4.03,2.33l0.64,0.81
		c1.05-0.42,2.75-2.27,4.2-1.91c0.29,1.47-3.41,10.64-3.78,13.07l3.39,0.01C389.05,1076.3,389.25,1075.19,389.65,1074.73
		L389.65,1074.73z"/>
	<path class="st1" d="M522.53,1065.9c0.31-2.52,3.08-5.46-2.09-3.88c-1.81,0.55-4.71,2.08-5.71,3.15l0.71,0.61
		c0.5-0.24,3.53-2.58,4.12-1.83c0.29,0.97-3.35,11-3.79,13l3.42-0.01c0.67-2.44,1.84-6.75,2.91-8.72c0.99-1.8,4.35-4.03,5.82-4.31
		c0.93-0.18,0.96,0.24,0.96,0.24c0.54,0.9-3.47,10.87-3.76,12.8l3.31-0.03c0.32-0.49,2.12-6.69,2.95-8.49
		c1.17-2.51,4.91-4.9,6.87-4.45c0.58,1.68-3.2,8.38-3.37,11.16c-0.17,2.84,2.32,2.68,4.31,1.69l4.37-2.95l-0.77-0.48
		c-0.64,0.45-3.45,2.59-4.23,1.91c-0.94-1.47,3.7-9.57,3.67-11.94c-0.04-2.7-3.59-1.63-5.18-0.91c-2.6,1.17-2.99,1.91-4.79,2.99
		c0.27-0.97,1.26-3.05,0.02-3.66c-1.78-0.87-5.54,1.25-6.98,2.22L522.53,1065.9L522.53,1065.9z"/>
	<path class="st1" d="M203.25,1069.03l-7.46,0.03c0.12-0.44,4.1-4.79,4.74-5.46l2.44-2.69c0.61-0.65,1.93-2.09,2.58-2.51
		c-0.36,1.68-0.91,3.34-1.27,5.19C203.97,1065.12,203.7,1067.62,203.25,1069.03L203.25,1069.03z M194.24,1063.42
		c0.4-0.47,0.9-0.67,0.61-1.53c-0.36-1.07-1.44-2.83,2.06-4.33c1.83-0.79,6.42-1.21,8.69-1.2c-0.25,0.43-0.35,0.4-0.77,0.82
		l-2.58,2.4c-0.81,0.79-2.41,2.81-3.26,3.28c-0.33,0.85-1.24,1.47-1.92,2.27c-2.51,2.98-7.7,8.74-10.37,11.09
		c-1.31,1.16-3.23,3.02-5.9,2.74c-1.1-0.11-2.81-0.66-3.39,0.22c-0.76,1.14,0.63,1.85,1.79,1.95c5.65,0.53,9.64-4.74,13.01-8.32
		l2.05-2.32l8.79-0.11c-0.47,4.2-1.02,3.96-1.92,6.79c1.8-0.12,2.95-0.23,4.81-0.1c1.59,0.11,3.24,0.27,4.84,0.11l0.28-0.99
		c-2.2,0.16-3.03,0.1-5.14-0.18c-0.21-1.23,2.41-16.18,3.16-19.41c0.19-0.81,0.56-1.76,0.66-2.51c-4.4,2.45-13.4,0.01-17.07,4.99
		c-0.55,0.74-1.04,1.76-0.85,2.94C192.04,1063.36,192.96,1063.3,194.24,1063.42L194.24,1063.42z"/>
	<path class="st1" d="M550.66,1074.7c0.54-2.46,1.8-6.44,3.65-7.96c8.34-6.84,9.63,0.55,4.33,7.36
		C556.93,1076.29,553.12,1077.1,550.66,1074.7L550.66,1074.7z M553.21,1066.01c0.32-1.36,1.18-2.53,0.92-4.07
		c-1.43-0.88-3.85,0.05-5.27,0.71c-2.31,1.08-3.05,2.15-4.01,2.63c0.26,0.52,0.49,0.63,0.95,0.81c0.32-0.21,4.05-3.27,4.47-1.91
		c0.01,0.03,0.03,0.08,0.04,0.12c0.16,0.75-5.14,17-5.53,18.13c-1.49,4.24-3.74,1.56-4.24,3.79c1.91,0.07,4.04-0.2,6.02-0.19
		c2.01,0.01,4.01,0.12,6,0.22l0.18-0.83c-1.89-0.8-5.74,0.33-4.73-2.77c0.65-1.98,1.39-3.92,1.97-5.86c2.1,0.41,2.82,0.99,5.33,0.49
		c1.71-0.34,2.89-1,4.06-1.84c6.61-4.74,8.37-15.02,1.45-13.66C557.21,1062.49,554.58,1065.36,553.21,1066.01L553.21,1066.01z"/>
	<path class="st1" d="M315.89,1063.78c-0.26,1.58-2.12,7.08-2.84,8.1c-0.83,1.17-4.73,4.71-6.89,2.42
		c-1.75-1.86,1.17-6.76,2.05-8.02C310.55,1062.89,313.11,1063.5,315.89,1063.78L315.89,1063.78z M325.61,1051.7l-0.57,0.29
		c-5.77,2.27-4.82,3.31-6.09,3.9c-0.1,0.59-0.66,1.2-0.98,1.87c-0.2,0.42-0.7,1.7-0.86,1.89l-0.63,2.11
		c-2.64-0.08-3.45-0.12-5.69,0.89c-3.51,1.59-6.6,4.9-8.07,8.39c-0.28,0.67-0.4,1.83-0.8,2.4c0.32,1.67,0.05,2.66,1.36,3.56
		c1.95,1.34,5.46-0.32,7.15-1.42l2.75-1.93c-0.33,1.43-2.62,4.75,1.68,3.66c1.8-0.45,3.17-1.24,4.69-2.12
		c0.62-0.36,1.54-1.03,2.16-1.26l-0.7-0.7c-1.26,0.53-3.14,2.18-4.72,1.78c-0.41-1.34,1.73-7.18,2.23-8.86
		c4.26-14.04,3.22-12.68,9.91-12.25c3.23,0.21,2.93-1.57,2.09-2.18C329.12,1050.73,326.9,1051.88,325.61,1051.7L325.61,1051.7z"/>
	<path class="st1" d="M346.11,1056.08c-4.56,0.46-10.84,5.42-9.58,10.8c0.25,1.07,0.68,1.37,1.01,1.92c1.09,0.31,1.9,0.49,2.64-0.27
		c0.5-1.11-4.02-4.14,0.45-8.5c1.77-1.72,5.34-3.24,8.9-3.13l-3.53,10.5c-0.65,2.01-1.5,4.23-2.34,6.09c-0.48,1.07-0.82,1.79-2,2.23
		c-2.44,0.9-2.4-0.12-2.71,1.55c2.09-0.1,3.88-0.36,6.09-0.29c2.1,0.06,4.2,0.25,6.32,0.12l0.33-0.73
		c-0.27-0.36,0.02-0.16-0.38-0.24l-2.21,0.05c-0.91-0.03-1.82-0.07-2.68-0.24c0.19-0.69,0.7-1.59,1-2.31
		c1.28-3.09,1.68-4.62,2.75-7.65c1.73-0.01,5.76-0.33,6.89,0.48l-0.01,1.54l1.24,0.03l1.3-4.79l-1.28,0
		c-0.46,1.57-1.22,1.52-2.99,1.54c-1.56,0.02-3.14,0-4.7,0c0.59-2.68,1.97-5.38,2.68-7.91c11.02-0.01,9.53-0.52,9.2,3.12l1.22,0.02
		l1.46-4.82c-3.43,0.42-5.88,0.49-9.41,0.49C352.91,1055.67,348.73,1055.44,346.11,1056.08L346.11,1056.08z"/>
	<path class="st1" d="M490.65,1074.99c-1.69-0.8-1.75,1.29-5.05,2.95c-6.66,3.36-14.05-1.88-10.53-11.59
		c0.81-2.24,1.93-3.9,3.18-5.43c2.56-3.13,8.13-5.94,12.14-4.23c2.56,1.09,2.24,3.37,2.2,6.38l1.29-0.12
		c0.48-4.81,0.96-3.92,1.49-6.39c-2.96-0.58-5.07-1.61-8.48-1.44c-2.88,0.14-5.34,1.1-7.53,2.23c-10.33,5.29-13.77,19.74-2.52,22.71
		C484.02,1081.95,490.65,1076.86,490.65,1074.99L490.65,1074.99z"/>
	<path class="st1" d="M595.78,1066.24c0.19-1.15,1.17-3.34,1.02-4.31c-2.09-1.37-8.17,2.39-8.97,3.41l0.73,0.51
		c0.84-0.45,4.08-3.2,4.35-1.57c0.1,0.58-3.86,12.18-3.9,12.65c1.04,0.01,2.65,0.25,3.52-0.11c0.44-0.41,1.65-6.58,3.05-8.68
		c1.31-1.98,6.35-4.97,7.46-3.85c0.89,0.89-3.33,8.15-3.28,11.17c0.08,4.83,8.3-0.72,8.97-1.76l-0.54-0.53
		c-1.36,0.51-3.17,2.53-4.75,2.2c-0.67-2.97,4.42-10.42,3.53-12.71c-0.84-2.17-4.62-0.36-6.06,0.39c-1.03,0.53-1.73,0.88-2.7,1.53
		L595.78,1066.24L595.78,1066.24z"/>
	<path class="st1" d="M281.23,1075.48c0.02,0.56-0.21,0.88-0.34,1.45l3.53,0c0.69-2.28,1.93-7.05,3.02-8.75
		c0.59-0.93,2.07-2.06,3.17-2.72c0.88-0.54,3.2-1.89,4.41-1.17c0.59,1.25-3.39,8.56-3.34,11.18c0.09,5.01,8.92-1.09,8.87-1.86
		l-0.53-0.43c-0.77,0.42-3.66,2.69-4.49,2.12c-0.24-0.24-0.07,0.3-0.24-0.45c-0.45-1.98,4.6-10.38,3.52-12.37
		c-1.7-3.11-10.81,3.4-11.09,3.83c-0.04-1.69,2.06-4.2,0.44-4.65c-1.96-0.54-5.96,1.86-7.57,2.98l-0.74,0.62
		c-0.01-0.02-0.05,0.06-0.06,0.09c0.37,0.35,0.36,0.34,0.72,0.54c0.99-0.56,2.74-2.37,4.29-2.08c0.17,1-1.19,4.67-1.57,5.9
		l-1.78,5.49C281.33,1075.39,281.35,1075.35,281.23,1075.48L281.23,1075.48z"/>
	<path class="st1" d="M606.77,1086.48h2.51c0.67-0.31,2.03-0.29,4.09-1.18c3.34-1.44,6.29-4.21,8.45-6.95
		c1.53-1.95,2.87-3.74,4.19-6.08c0.66-1.16,1.15-2.16,1.66-3.48c0.24-0.64,0.44-1.22,0.65-1.92l0.58-2.07v-1.9
		c-0.46-0.69-0.53-1.21-1.69-1.3c-3.34-0.26-0.62,3.56-1.01,5.89c-0.38,2.26-2.77,6.79-3.93,7.8c-0.18-2.7-0.06-3.87-0.91-6.34
		c-0.61-1.77-1.42-3.48-2.4-4.85c-1.78-2.5-2.34-2.88-4.44-1.96c-1.45,0.64-3.37,1.52-4.74,2.36l0.66,0.82
		c1.38-0.38,3.05-1.9,4.72-0.75c3.12,2.16,5.16,10.89,3.97,13.96c-0.86,2.21-4.1,5.23-7,5.56c-1.85,0.21-3.83-0.69-5.66-0.38
		c-0.74,0.13-1.72,0.65-1.51,1.48C605.17,1086.04,606.32,1086.23,606.77,1086.48L606.77,1086.48z"/>
	<path class="st1" d="M446.71,1070.77c0.64,1.24,1.2,5.84,0.71,7.37c-0.68,2.09-2.42,3.7-3.96,4.65c-2.75,1.71-3.54,1.34-6.98,0.94
		c-1.2-0.14-2.84-0.09-3.28,0.76c-0.73,1.43,1.23,1.64,1.99,2h2.3c0.57-0.27,2.35-0.53,3.32-0.91c6.21-2.42,11.09-8.9,14.13-14.72
		c0.75-1.45,3.73-8.37,0.87-9.18c-1.32-0.37-2.38,0.24-2.13,1.66c0.21,1.21,0.83,2.11,0.75,3.51c-0.07,1.21-0.46,2.2-0.87,3.22
		c-0.43,1.07-1.86,3.62-2.64,4.61l-0.51,0.5c-0.04-4.62-1.12-7.92-3.27-11.03c-1.07-1.55-1.74-3.15-4.41-2.04
		c-1.56,0.65-3.4,1.85-4.84,2.36l0.81,0.82c2.4-1,3.4-2,5.44,0.04C445.2,1066.42,446.3,1068.81,446.71,1070.77L446.71,1070.77z"/>
	<path class="st1" d="M580.53,1064.13c-0.43,1.68-2.1,6.35-2.92,7.63c-0.66,1.02-1.54,1.86-2.77,2.52
		c-5.77,3.09-5.82-3.36-2.24-7.68C574.53,1064.27,576.37,1063.66,580.53,1064.13L580.53,1064.13z M580.9,1074.96
		c-0.7-2.29,3.63-11.56,4.2-13.84c-2.45,0.26-1.38,0.65-2.3,0.89c-0.35,0.09-2.45-0.01-3.1,0.05c-4.88,0.39-9.17,3.5-11.47,7.27
		c-0.74,1.22-1.64,2.86-1.67,4.63c-0.03,1.85,0.95,3.29,2.66,3.47c3.47,0.36,6.67-2.68,8.57-3.89c-0.25,1-1.2,2.5-0.94,3.52
		c1.25,1.15,3.98-0.16,5.19-0.71c1.65-0.74,2.8-1.88,4.14-2.49c-0.27-0.55-0.26-0.38-0.66-0.78
		C584.48,1073.5,582.43,1075.4,580.9,1074.96L580.9,1074.96z"/>
	<path class="st1" d="M377.1,1064.12c-0.38,1.66-2.21,6.59-3,7.77c-0.71,1.06-1.58,1.84-2.82,2.47c-5.91,3.01-5.44-3.82-2.07-7.81
		C371.19,1064.18,373.13,1063.75,377.1,1064.12L377.1,1064.12z M366.78,1077.44c2.09-0.3,4.24-1.45,5.87-2.61
		c0.65-0.46,1.07-0.87,1.68-1.23c-0.3,1.22-1.17,2.33-0.92,3.57c2.7,1.29,7.87-2.21,9.33-3.4l-0.36-0.5
		c-0.16-0.06-0.25-0.05-0.46-0.17c-0.6,0.46-3.79,2.61-4.46,1.79c-0.7-1.63,3.51-11.84,4.21-13.72c-1.68-0.07-1.45,0.32-2.2,0.88
		c-3.12-0.03-5.11-0.1-7.72,1.16c-2.49,1.2-4.6,2.97-6.11,4.92C362.87,1071.68,361.32,1077.57,366.78,1077.44L366.78,1077.44z"/>
	<path class="st1" d="M272.45,1064.2c-0.95,2.3-1.71,5.68-2.96,7.63c-1.6,2.48-5.69,4.24-6.95,2.59c-1.65-2.16,1.01-6.66,1.99-7.86
		C266.45,1064.21,269.69,1063.34,272.45,1064.2L272.45,1064.2z M278.17,1073.66c-0.48-0.22-0.45-0.27-0.82-0.56
		c-1.09,0.56-1.65,1.17-3.17,1.75c-0.32,0.12-1.14,0.33-1.26,0.06c-0.02-0.05-0.08-0.04-0.11-0.07c-0.8-1.47,3.51-11.93,4.19-13.71
		l-0.63,0.03c-0.83,0.3-0.85-0.17-1.4,0.88c-4.14-0.02-6.69,0.09-9.67,2.12c-2.94,2.01-7.43,6.48-6.79,10.64
		c0.26,1.69,1.42,2.69,3.28,2.64c3.1-0.09,5.93-2.65,7.86-3.85c-0.26,1.16-1.15,2.27-0.91,3.54
		C271.37,1078.51,276.73,1074.88,278.17,1073.66L278.17,1073.66z"/>
	<path class="st1" d="M508.23,1069.56c-0.97,7.8-10.43,9.5-9.08-0.11C500.21,1061.96,509.44,1059.83,508.23,1069.56L508.23,1069.56z
		 M512.34,1068.36c1.04-5.81-4.02-7.77-9.21-6.12c-3.65,1.16-7.11,4.54-7.92,8.56c-1.23,6.03,3.98,7.84,9.1,6.07
		C507.88,1075.62,511.62,1072.39,512.34,1068.36L512.34,1068.36z"/>
	<path class="st1" d="M442.02,1051.42c-0.52,0.11-0.81,0.2-1.32,0.12c-0.5,0.36-0.58,0.22-1.71,0.64c-4.26,1.58-5.68,4.09-7.14,8.42
		c-1.45,4.3-3.19,9.07-4.26,13.58c-0.28,1.29-0.5,2.83,0.87,3.19c2.13,0.55,6.22-1.9,7.96-3.14c0.48-0.35,0.77-0.71,1.25-0.81
		c-0.24-0.52-0.3-0.47-0.64-0.82c-0.92,0.32-7.03,5.09-6.02,1.52c1.39-4.89,3.31-10.78,4.85-15.56c1.6-4.98,1.68-5.3,6.13-4.8
		c1.33,0.15,4,0.45,4.05-1.13C446.1,1051.06,443.33,1051.33,442.02,1051.42L442.02,1051.42z"/>
	<path class="st1" d="M416.29,1075.01c0.17,1.04-0.25,3.86,4.5,1.73c0.92-0.42,4.13-2.42,4.56-2.96l-0.6-0.61
		c-1.25,0.21-3.65,2.8-4.5,2.01c-0.25-0.23-0.19-0.49-0.19-0.49c-0.06-0.43,0.15-1.03,0.27-1.44c0.74-2.53,4.14-10.54,3.68-11.22
		c-1.37-1.01-3.77-0.12-5.16,0.53c-2.11,0.99-2.84,1.93-4.02,2.6c0.3,0.33,0.5,0.51,1.06,0.65c0.91-0.6,2.68-2.27,4.08-1.98
		c0.31,0.73-1.44,4.53-1.78,5.46L416.29,1075.01L416.29,1075.01z"/>
	<path class="st1" d="M424.95,1053.85l-0.34,0.09c-2.6,0.88-1.91,3.69,0.58,3.17C427.21,1056.69,428.15,1053.84,424.95,1053.85
		L424.95,1053.85z"/>
	<polygon class="st0" points="643.86,1078.19 805.3,1078.19 805.3,1059.1 643.86,1059.1 643.86,1078.19 	"/>
	<polygon class="st0" points="5.3,1078.19 166.73,1078.19 166.73,1059.1 5.3,1059.1 5.3,1078.19 	"/>
</g>
</svg>
