<?xml version="1.0" encoding="utf-8"?>
<!-- Generator: Adobe Illustrator 26.5.0, SVG Export Plug-In . SVG Version: 6.00 Build 0)  -->
<svg version="1.1" id="Layer_1" xmlns="http://www.w3.org/2000/svg" xmlns:xlink="http://www.w3.org/1999/xlink" x="0px" y="0px"
	 viewBox="0 0 1010 342.4" style="enable-background:new 0 0 1010 342.4;" xml:space="preserve">
<style type="text/css">
	.st0{fill:#FFFFFF;}
</style>
<g>
	<g>
		<path class="st0" d="M844.9,39.7V3.8H544.2c-19.8,0-35.9,16.1-35.9,35.9l0,0h-160V3.8l-307.5,0C21,3.8,4.9,19.9,4.9,39.7l0,0
			v263.6h166.8v35.9h286c27.9,0,50.6-17.6,50.6-35.9l0,0h160.1v35.9h286c27.9,0,50.6-17.6,50.6-35.9V39.7H844.9z"/>
		<path class="st0" d="M954.4,343.7H663.9v-35.9H512.4c-3.3,19.6-27.4,35.9-54.7,35.9H167.3v-35.9H0.4V39.7
			c0-22.3,18.1-40.4,40.4-40.4h312v35.9h151.3c2.2-20.1,19.4-35.9,40.1-35.9h305.2v35.9h160v268.1
			C1009.4,324.8,983.7,343.7,954.4,343.7z M672.9,334.7h281.5c21.7,0,46.1-13.4,46.1-31.4V44.2h-160V8.3H544.2
			c-17.3,0-31.4,14.1-31.4,31.4v4.5h-169V8.3h-303C23.5,8.3,9.4,22.4,9.4,39.7v259.1h166.8v35.9h281.5c21.7,0,46.1-13.4,46.1-31.4
			v-4.5h169.1V334.7z"/>
	</g>
	<g>
		<path class="st0" d="M844.9,39.7L844.9,39.7l0,223.8c0,22-17.8,39.8-39.8,39.8H668.4v35.9h286c27.9,0,50.6-17.6,50.6-35.9V39.7
			H844.9z"/>
	</g>
	<g>
		<path class="st0" d="M701.7,39.7h143.2h0V3.8H544.2c-19.8,0-35.9,16.1-35.9,35.9v263.6v0h160.1V73
			C668.4,54.6,683.3,39.7,701.7,39.7z"/>
	</g>
	<g>
		<path class="st0" d="M308.5,303.3c22,0,39.8-17.8,39.8-39.8V39.7l0,0h0H205.1c-18.4,0-33.3,14.9-33.3,33.3v230.3l0,0H308.5z"/>
	</g>
	<g>
		<path d="M348.3,39.7L348.3,39.7l0,223.8c0,22-17.8,39.8-39.8,39.8H171.8l0,0v35.9h286c27.9,0,50.6-17.6,50.6-35.9v0V39.7H348.3z"
			/>
	</g>
	<g>
		<path d="M205.1,39.7h143.2h0V3.8H40.8C21,3.8,4.9,19.9,4.9,39.7v263.6h166.8V73C171.8,54.6,186.7,39.7,205.1,39.7z"/>
	</g>
	<g>
		<path d="M844.9,263.5V39.7l0,0h0H701.7c-18.4,0-33.3,14.9-33.3,33.3v230.3h136.7C827,303.3,844.9,285.5,844.9,263.5z"/>
	</g>
	<g>
		<g>
			<path d="M968.7,226.9c8,0,14.5,6.5,14.5,14.5c0,8-6.5,14.5-14.5,14.5c-8,0-14.5-6.5-14.5-14.5
				C954.2,233.4,960.7,226.9,968.7,226.9z M968.7,251.6c6,0,9.5-3.6,9.5-10.2s-3.6-10.2-9.5-10.2c-6,0-9.5,3.6-9.5,10.2
				S962.8,251.6,968.7,251.6z M963.2,233.5h4.9c4.2,0,6.7,1.1,6.7,4.8c0,2.9-1.7,3.8-2.9,4l3.3,6h-4l-3.1-5.6h-1.3v5.6h-3.6V233.5z
				 M968.7,239.8c1.4,0,2.2-0.6,2.2-1.8c0-1.1-0.8-1.6-2.2-1.6h-1.9v3.4H968.7z"/>
		</g>
	</g>
	<g>
		<path d="M592.3,100.6c26.7,0,55.2,14.2,61.2,46.5H626c-5.9-14.8-17.8-21.3-33.7-21.3c-23.5,0-39.2,16.8-39.2,41.7
			c0,22.4,15.4,41.1,39,41.1c16.5,0,29.9-7.7,34.5-23.5h27.3c-5.7,34.6-33.9,49-61.6,49c-34.9,0-67.9-23.2-67.9-66.5
			C524.4,123.9,557.4,100,592.3,100.6z"/>
	</g>
	<g>
		<path class="st0" d="M840.3,70.6L840.3,70.6c-3.1,0-6,1.8-7.3,4.6L828,86.1l-11.9,1.5c-3.1,0.4-5.7,2.5-6.7,5.5
			c-1,3-0.1,6.2,2.2,8.3l8.8,8.2l-2.3,11.8c-0.6,3.1,0.6,6.2,3.2,8c1.4,1,3.1,1.5,4.7,1.5c1.3,0,2.7-0.3,3.9-1l10.5-5.8l10.5,5.8
			c1.2,0.7,2.6,1,3.9,1c1.7,0,3.3-0.5,4.7-1.5c2.5-1.8,3.8-5,3.2-8l-2.3-11.8l8.8-8.2c2.3-2.1,3.1-5.4,2.2-8.3c-1-3-3.6-5.1-6.6-5.5
			l-11.9-1.5l-5.1-10.9C846.2,72.4,843.4,70.6,840.3,70.6L840.3,70.6z"/>
	</g>
	<g>
		<polygon points="840.3,78.7 847.2,93.6 863.6,95.6 851.5,106.8 854.7,122.9 840.3,114.9 825.9,122.9 829.1,106.8 817,95.6 
			833.4,93.6 		"/>
	</g>
	<g>
		<path class="st0" d="M139.5,164.9c8.3-5,13.3-14.6,13.3-24.1c0-24.5-17.4-38.7-41.7-38.7H74.2H54.8H39.7v24.8h15.2v105.9h61.6
			c26.5,0,42.1-15.7,42.1-38.7C158.5,180.6,151.9,169.9,139.5,164.9z M83.1,126h26c9.9,0,16.1,6.2,15.9,15.7
			c-0.2,8.8-6.3,14-15.9,14h-26V126z M114.5,208.4H83.1v-29.9h30.1c4.4,0,8.1,0.4,11.4,2.6c4,2.8,6.1,7.7,5.9,12.9
			C129.9,202.8,124.2,208.4,114.5,208.4z"/>
	</g>
	<g>
		<path d="M292,185.1c15.2-7.3,23.7-21.9,23.7-38.5c0-23.2-16.5-44.9-46.8-44.9c-19-0.2-37.7,0-56.7,0h-14.3v24.8h14.3v106.1h28.4
			v-43.2h23.7l27.3,43.2H322v-3.9L292,185.1z M268.7,166.4h-28.4v-40.2h28.4c12.1,0,19.5,8.8,19.5,19.8
			C288.4,157.2,280.7,166.4,268.7,166.4z"/>
	</g>
	<g>
		<path class="st0" d="M401.2,211l-10.2,21.7h-29.6V229l61-128.2h13.1L496.1,229v3.7h-29.4L456.3,211H401.2z M410.5,187.5h36.8
			l-18.4-43.2L410.5,187.5z"/>
	</g>
	<g>
		<path class="st0" d="M774,232.7v-55.3h-50.8v55.3H695V101.9h28.2v49.9H774v-49.9h28.4v130.8H774z"/>
	</g>
	<g>
		<path d="M834.2,14.5v25.2v10.7h10.7h149.3v252.9c0,11.6-17.4,25.2-39.9,25.2H679.1v-25.2v-10.7h-10.7l-149.4,0V39.7
			c0-13.9,11.3-25.2,25.2-25.2H834.2 M844.9,3.8H544.2c-19.8,0-35.9,16.1-35.9,35.9v263.6v0h160.1v35.9h286
			c27.9,0,50.6-17.6,50.6-35.9V39.7h-160V3.8L844.9,3.8z"/>
	</g>
	<g>
		<path d="M887.4,194c0.6,12,13.8,17,26.7,17c11.7,0,25.4-2.8,25.4-16.4c0-15-16.3-16.3-29-17.2c-24.1-2.1-48.3-10.1-48.3-37.2
			c0-29,24.1-41.1,50.4-41.1c24.8,0,50.6,10.3,50.6,39.6h-26.5c-1.5-10.7-12.7-15.1-24.1-15.1c-11.4,0-22.6,6-22.6,16.1
			c0,11.6,11.6,14.2,25.4,15.7c28,2.4,52.1,8.6,52.1,39.2c0,30.8-27.1,40.4-53.3,40.9c-26.5,0-54-12.9-54-41.5H887.4z"/>
	</g>
</g>
</svg>
