<svg id="Logo" xmlns="http://www.w3.org/2000/svg" width="189.52" height="31.61" viewBox="0 0 189.52 31.61"><defs><style>.cls-1{fill:#231f20;}</style></defs><path class="cls-1" d="M22.75,19.59H14.2V49.43h8.5c4.52,0,7.78-1.06,10.65-3.44a15,15,0,0,0,5.42-11.46C38.77,25.73,32.19,19.59,22.75,19.59ZM29.55,42c-1.83,1.65-4.21,2.37-8,2.37H20V24.65h1.56c3.76,0,6,.67,8,2.41a10.05,10.05,0,0,1,3.22,7.43A10.25,10.25,0,0,1,29.55,42Z" transform="translate(-14.2 -18.68)"/><rect class="cls-1" x="27.24" y="0.91" width="5.82" height="29.84"/><path class="cls-1" d="M61.5,31C58,29.75,57,28.9,57,27.28c0-1.87,1.83-3.3,4.34-3.3A6,6,0,0,1,66,26.39l3-4a13.07,13.07,0,0,0-8.77-3.31C55,19.1,51,22.76,51,27.65c0,4.11,1.88,6.21,7.34,8.18a24.06,24.06,0,0,1,4,1.7,3.57,3.57,0,0,1,1.74,3.09,4.25,4.25,0,0,1-4.52,4.21,6.89,6.89,0,0,1-6.35-4l-3.76,3.62c2.68,3.94,5.9,5.68,10.33,5.68,6.05,0,10.29-4,10.29-9.8C70.08,35.61,68.12,33.46,61.5,31Z" transform="translate(-14.2 -18.68)"/><path class="cls-1" d="M71.92,34.53A15.46,15.46,0,0,0,87.67,50.11,16.19,16.19,0,0,0,95,48.37V41.52c-2.33,2.32-4.39,3.26-7,3.26-5.86,0-10-4.25-10-10.29a9.92,9.92,0,0,1,9.75-10.25c2.78,0,4.88,1,7.3,3.36V20.75a14.81,14.81,0,0,0-7.16-1.83A15.69,15.69,0,0,0,71.92,34.53Z" transform="translate(-14.2 -18.68)"/><polygon class="cls-1" points="126.92 20.96 118.96 0.91 112.61 0.91 125.27 31.52 128.4 31.52 141.29 0.91 134.99 0.91 126.92 20.96"/><polygon class="cls-1" points="143.93 30.76 160.44 30.76 160.44 25.7 149.75 25.7 149.75 17.65 160.04 17.65 160.04 12.6 149.75 12.6 149.75 5.97 160.44 5.97 160.44 0.91 143.93 0.91 143.93 30.76"/><path class="cls-1" d="M197.69,28.4c0-5.59-3.85-8.81-10.57-8.81h-8.63V49.43h5.82v-12h.76l8.05,12h7.16l-9.39-12.57C195.27,36,197.69,33,197.69,28.4ZM186,33.33h-1.7v-9h1.79c3.63,0,5.6,1.52,5.6,4.42S189.73,33.33,186,33.33Z" transform="translate(-14.2 -18.68)"/><path class="cls-1" d="M202.33,21.16c0-.53-.37-.82-1-.82h-.84V23h.62V22l.74,1h.77l-.87-1.08A.73.73,0,0,0,202.33,21.16Zm-1.11.35h-.11v-.68h.12c.31,0,.47.11.47.33S201.53,21.51,201.22,21.51Z" transform="translate(-14.2 -18.68)"/><path class="cls-1" d="M201.46,19.36a2.3,2.3,0,1,0,2.26,2.29A2.29,2.29,0,0,0,201.46,19.36Zm0,4.18a1.89,1.89,0,1,1,1.81-1.88A1.85,1.85,0,0,1,201.45,23.54Z" transform="translate(-14.2 -18.68)"/><circle class="cls-1" cx="98.46" cy="15.8" r="15.8"/></svg>